<?xml version="1.0" encoding="UTF-8"?>
<svg width="24px" height="24px" viewBox="0 0 24 24" version="1.1" xmlns="http://www.w3.org/2000/svg" xmlns:xlink="http://www.w3.org/1999/xlink">
    <!-- Generator: Sketch 63.1 (92452) - https://sketch.com -->
    <title>Icons/Arrow/ left</title>
    <desc>Created with Sketch.</desc>
    <g id="Icons/Arrow/-left" stroke="none" stroke-width="1" fill="none" fill-rule="evenodd">
        <path d="M12.0000001,7 C12.5522849,7 13.0000001,7.44771525 13.0000001,8 L13,14.069 L14.2972419,12.7885713 C14.6901532,12.4004487 15.3233062,12.4043306 15.7114289,12.7972419 C16.0995515,13.1901532 16.0956696,13.8233062 15.7027583,14.2114289 L12.6648199,17.2123424 C12.2753111,17.597104 11.6488123,17.597104 11.2593035,17.2123424 L8.2972419,14.286381 C7.90433064,13.8982583 7.90044871,13.2651053 8.28857135,12.872194 C8.67669399,12.4792827 9.30984707,12.4754008 9.70275833,12.8635234 L11,14.145 L11.0000001,8 C11.0000001,7.44771525 11.4477154,7 12.0000001,7 Z" id="Combined-Shape" fill="#3F51B5" transform="translate(12.000000, 12.250457) rotate(-270.000000) translate(-12.000000, -12.250457) "></path>
    </g>
</svg>