<?xml version="1.0" encoding="UTF-8"?>
<svg width="24px" height="24px" viewBox="0 0 24 24" version="1.1" xmlns="http://www.w3.org/2000/svg" xmlns:xlink="http://www.w3.org/1999/xlink">
    <!-- Generator: Sketch 63.1 (92452) - https://sketch.com -->
    <title>Icons/Attach</title>
    <desc>Created with Sketch.</desc>
    <g id="Icons/Attach" stroke="none" stroke-width="1" fill="none" fill-rule="evenodd">
        <path d="M12.6425993,17.9647145 C11.112347,19.4600361 8.62736341,19.4606503 7.10092154,17.9690523 C5.57505176,16.4780133 5.57769296,14.0466694 7.10253018,12.5566394 L14.250494,5.57184115 C15.1476094,4.695204 16.586068,4.69251203 17.4832441,5.56920838 C18.3762599,6.44183942 18.3778447,7.85135261 17.4868708,8.72198843 L10.7836073,15.2722375 C10.5328772,15.5172442 10.1280656,15.5162552 9.86954089,15.2636318 C9.61072863,15.0107274 9.60963451,14.6157985 9.86954089,14.361825 L16.0989344,8.27462888 C16.481201,7.90108825 16.481201,7.29545925 16.0989344,6.92191863 C15.7166679,6.54837801 15.0968913,6.54837801 14.7146247,6.92191863 L8.48523122,13.0091147 C7.45910884,14.0118139 7.46355865,15.6179911 8.48523122,16.616342 C9.50674385,17.6145368 11.1511,17.618554 12.167917,16.6249478 L18.8711804,10.0746987 C20.5273693,8.4563154 20.5244225,5.83554581 18.8675538,4.21649814 C17.2046552,2.59155823 14.5266484,2.59656992 12.8661843,4.2191309 L5.7182205,11.2039291 C3.42950728,13.4403982 3.42555029,17.0829987 5.71661185,19.3217625 C8.00774368,21.560595 11.7322803,21.5596744 14.026909,19.3174248 L20.7133,12.783663 C21.0955667,12.4101224 21.0955667,11.8044934 20.7133,11.4309528 C20.3310335,11.0574122 19.711257,11.0574122 19.3289903,11.4309528 L12.6425993,17.9647145 Z" id="Shape" fill="#3F51B5"></path>
    </g>
</svg>