<?xml version="1.0" encoding="UTF-8"?>
<svg width="24px" height="24px" viewBox="0 0 24 24" version="1.1" xmlns="http://www.w3.org/2000/svg" xmlns:xlink="http://www.w3.org/1999/xlink">
    <!-- Generator: Sketch 63.1 (92452) - https://sketch.com -->
    <title>Icons/Back to</title>
    <desc>Created with Sketch.</desc>
    <g id="Icons/Back-to" stroke="none" stroke-width="1" fill="none" fill-rule="evenodd">
        <circle id="Oval" fill="#21233D" cx="12" cy="12" r="10"></circle>
        <path d="M12.6648199,7.28857123 L15.7027583,10.2894847 C16.0956696,10.6776074 16.0995515,11.3107604 15.7114289,11.7036717 C15.3233062,12.096583 14.6901532,12.1004649 14.2972419,11.7123422 L13,10.431 L13.0000001,16.5 C13.0000001,17.0522847 12.5522849,17.5 12.0000001,17.5 C11.4477154,17.5 11.0000001,17.0522847 11.0000001,16.5 L11,10.355 L9.70275833,11.6373901 C9.30984707,12.0255128 8.67669399,12.0216309 8.28857135,11.6287196 C7.90044871,11.2358083 7.90433064,10.6026553 8.2972419,10.2145326 L11.2593035,7.28857123 C11.6488123,6.90380959 12.2753111,6.90380959 12.6648199,7.28857123 Z" id="Combined-Shape" fill="#3F51B5" transform="translate(12.000000, 12.250000) rotate(270.000000) translate(-12.000000, -12.250000) "></path>
    </g>
</svg>