<?xml version="1.0" encoding="UTF-8"?>
<svg width="24px" height="24px" viewBox="0 0 24 24" version="1.1" xmlns="http://www.w3.org/2000/svg" xmlns:xlink="http://www.w3.org/1999/xlink">
    <!-- Generator: Sketch 63.1 (92452) - https://sketch.com -->
    <title>Icons/Box Check</title>
    <desc>Created with Sketch.</desc>
    <g id="Icons/Box-Check" stroke="none" stroke-width="1" fill="none" fill-rule="evenodd">
        <path d="M16.9905224,4 C18.652611,4 20,5.33663106 20,7.00947762 L20,16.9905224 C20,18.652611 18.6633689,20 16.9905224,20 L7.00947762,20 C5.34738902,20 4,18.6633689 4,16.9905224 L4,7.00947762 C4,5.34738902 5.33663106,4 7.00947762,4 L16.9905224,4 Z M14.2928932,9.29289322 L11,12.5857864 L9.70710678,11.2928932 C9.31658249,10.9023689 8.68341751,10.9023689 8.29289322,11.2928932 C7.90236893,11.6834175 7.90236893,12.3165825 8.29289322,12.7071068 L10.2928932,14.7071068 C10.6834175,15.0976311 11.3165825,15.0976311 11.7071068,14.7071068 L15.7071068,10.7071068 C16.0976311,10.3165825 16.0976311,9.68341751 15.7071068,9.29289322 C15.3165825,8.90236893 14.6834175,8.90236893 14.2928932,9.29289322 Z" id="Combined-Shape" fill="#3F51B5"></path>
    </g>
</svg>