<?xml version="1.0" encoding="UTF-8"?>
<svg width="24px" height="24px" viewBox="0 0 24 24" version="1.1" xmlns="http://www.w3.org/2000/svg" xmlns:xlink="http://www.w3.org/1999/xlink">
    <!-- Generator: Sketch 63.1 (92452) - https://sketch.com -->
    <title>Icons/Box Empty</title>
    <desc>Created with Sketch.</desc>
    <g id="Icons/Box-Empty" stroke="none" stroke-width="1" fill="none" fill-rule="evenodd">
        <path d="M17,4 C18.6568542,4 20,5.34314575 20,7 L20,17 C20,18.6568542 18.6568542,20 17,20 L7,20 C5.34314575,20 4,18.6568542 4,17 L4,7 C4,5.34314575 5.34314575,4 7,4 L17,4 Z M16.5,5.5 L7.5,5.5 C6.3954305,5.5 5.5,6.3954305 5.5,7.5 L5.5,7.5 L5.5,16.5 C5.5,17.6045695 6.3954305,18.5 7.5,18.5 L7.5,18.5 L16.5,18.5 C17.6045695,18.5 18.5,17.6045695 18.5,16.5 L18.5,16.5 L18.5,7.5 C18.5,6.3954305 17.6045695,5.5 16.5,5.5 L16.5,5.5 Z" id="Combined-Shape" fill="#3F51B5"></path>
    </g>
</svg>