<?xml version="1.0" encoding="UTF-8"?>
<svg width="24px" height="24px" viewBox="0 0 24 24" version="1.1" xmlns="http://www.w3.org/2000/svg" xmlns:xlink="http://www.w3.org/1999/xlink">
    <!-- Generator: Sketch 63.1 (92452) - https://sketch.com -->
    <title>Icons/Export</title>
    <desc>Created with Sketch.</desc>
    <g id="Icons/Export" stroke="none" stroke-width="1" fill="none" fill-rule="evenodd">
        <path d="M11,3 L11,5 L5,5 L5,19 L19,19 L19,13 L21,13 L21,19.0020869 C21,20.0553485 20.1866805,20.9182505 19.1538822,20.99452 L19.0049107,21 L4.99508929,21 C3.8932319,21 3,20.1054862 3,19.0059397 L3,4.99406028 C3,3.8927712 3.89585781,3 4.9973917,3 L11,3 Z M20,3 C20.0064615,3 20.0129086,3.00006128 20.0193409,3.0001833 C20.042681,3.00063489 20.0659949,3.00189498 20.0892501,3.00396641 C20.1096949,3.00574796 20.1294204,3.00810098 20.1489612,3.01101934 C20.165949,3.01362808 20.1833753,3.01670217 20.2007258,3.02024007 C20.2227461,3.0246398 20.2444365,3.02983363 20.2658396,3.03572097 C20.2814633,3.04009773 20.2968513,3.04472872 20.3121425,3.04973809 C20.3317977,3.05612249 20.3515792,3.06331574 20.3710585,3.07110396 C20.3887956,3.07819642 20.4060985,3.08567905 20.4232215,3.09367336 C20.4438914,3.10337664 20.4642939,3.11379392 20.484277,3.12487577 C20.4963944,3.13149883 20.5086131,3.13860692 20.5207088,3.14599545 C20.546275,3.1617187 20.5711307,3.17849009 20.5951593,3.19631351 C20.6343256,3.22531295 20.6717127,3.25749917 20.7071068,3.29289322 L20.6167501,3.21278596 C20.6801818,3.26255171 20.7374483,3.31981825 20.787214,3.38324992 C20.7927155,3.39015759 20.7982466,3.39739696 20.8036654,3.40469339 C20.8215099,3.42886931 20.8382813,3.45372505 20.8539326,3.47933981 C20.8613931,3.49138689 20.8685012,3.50360556 20.8753288,3.5159379 C20.8862061,3.53570605 20.8966234,3.5561086 20.9063462,3.57690085 C20.914321,3.5939015 20.9218036,3.61120435 20.9287745,3.62866398 C20.9363009,3.64746187 20.9431679,3.66625545 20.9494777,3.68530291 C20.9546565,3.70111184 20.9596208,3.71751269 20.9641549,3.73400703 C20.9697248,3.75395829 20.9745772,3.77400198 20.9788159,3.79427113 C20.9826968,3.81324293 20.9861186,3.8323544 20.9889822,3.85153313 C20.9962388,3.89963791 21,3.94937972 21,4 L20.9958523,3.90873745 C20.9976411,3.92837321 20.9988513,3.94805174 20.9994829,3.96774538 L21,4 L21,8 C21,8.55228475 20.5522847,9 20,9 C19.4477153,9 19,8.55228475 19,8 L19,8 L19,6.414 L12.7071068,12.7071068 C12.3466228,13.0675907 11.7793918,13.0953203 11.3871006,12.7902954 L11.2928932,12.7071068 C10.9023689,12.3165825 10.9023689,11.6834175 11.2928932,11.2928932 L11.2928932,11.2928932 L17.584,5 L16,5 C15.4871642,5 15.0644928,4.61395981 15.0067277,4.11662113 L15,4 C15,3.44771525 15.4477153,3 16,3 L16,3 Z" id="Combined-Shape" fill="#3F51B5"></path>
    </g>
</svg>