<?xml version="1.0" encoding="UTF-8"?>
<svg width="24px" height="24px" viewBox="0 0 24 24" version="1.1" xmlns="http://www.w3.org/2000/svg" xmlns:xlink="http://www.w3.org/1999/xlink">
    <!-- Generator: Sketch 63.1 (92452) - https://sketch.com -->
    <title>Icons/Full screen On</title>
    <desc>Created with Sketch.</desc>
    <g id="Icons/Full-screen-On" stroke="none" stroke-width="1" fill="none" fill-rule="evenodd">
        <path d="M9.84770679,13 C10.1332654,13 10.4188241,13.1092835 10.6374549,13.3267353 L10.6374549,13.3267353 L10.6742652,13.3635349 C11.1037186,13.7928629 11.1115268,14.5009753 10.6798425,14.9336488 L10.6798425,14.9336488 L6.613,18.997 L8,18.997 C8.5135,18.997 8.93560204,19.3832857 8.99328243,19.8812321 L9,19.998 C9,20.551 8.553,21 8,21 L8,21 L4.1,21 C3.493,21 3,20.506 3,19.898 L3,19.898 L3,16.002 C3,15.448 3.448,15 4,15 C4.552,15 5,15.448 5,16.002 L5,16.002 L5,17.387 L9.06688241,13.3211597 C9.25045582,13.1385957 9.48483972,13.0330445 9.72648226,13.0066128 Z M19.9,3 C20.5072847,3 21,3.49353781 21,4.10183639 L21,4.10183639 L21,7.99833055 C21,8.55153731 20.5522847,9 20,9 C19.4477153,9 19,8.55153731 19,7.99833055 L19,7.99833055 L19,6.444 L15.1466859,10.2985225 C14.7910001,10.6542083 14.2250539,10.6817496 13.8335563,10.3773484 L13.7395388,10.2943305 L13.7056695,10.2604612 C13.3207386,9.8755302 13.3140622,9.24072943 13.7014775,8.85331409 L13.7014775,8.85331409 L17.551,5.003 L16,5.0033389 C15.4871642,5.0033389 15.0644928,4.61665423 15.0067277,4.11848527 L15,4.00166945 C15,3.44846269 15.4477153,3 16,3 L16,3 Z" id="Clip-5" fill="#3F51B5"></path>
    </g>
</svg>