<?xml version="1.0" encoding="UTF-8"?>
<svg width="24px" height="24px" viewBox="0 0 24 24" version="1.1" xmlns="http://www.w3.org/2000/svg" xmlns:xlink="http://www.w3.org/1999/xlink">
    <!-- Generator: Sketch 63.1 (92452) - https://sketch.com -->
    <title>Icons/Full screen Off</title>
    <desc>Created with Sketch.</desc>
    <g id="Icons/Full-screen-Off" stroke="none" stroke-width="1" fill="none" fill-rule="evenodd">
        <path d="M19.4337775,3 C19.7193361,3 20.0048947,3.10928349 20.2235256,3.32673535 L20.2235256,3.32673535 L20.2603358,3.36353489 C20.6897893,3.7928629 20.6975975,4.50097534 20.2659132,4.93364877 L20.2659132,4.93364877 L16.2,8.997 L17.5860707,8.997 C18.0995707,8.997 18.5216727,9.38328571 18.5793531,9.88123214 L18.5860707,9.998 C18.5860707,10.551 18.1390707,11 17.5860707,11 L17.5860707,11 L13.6860707,11 C13.0790707,11 12.5860707,10.506 12.5860707,9.898 L12.5860707,9.898 L12.5860707,6.002 C12.5860707,5.448 13.0340707,5 13.5860707,5 C14.1380707,5 14.5860707,5.448 14.5860707,6.002 L14.5860707,6.002 L14.586,7.387 L18.6529531,3.32115966 C18.8365265,3.13859569 19.0709104,3.03304449 19.3125529,3.0066128 Z M9.48607067,13 C10.0933554,13 10.5860707,13.4935378 10.5860707,14.1018364 L10.5860707,14.1018364 L10.5860707,17.9983306 C10.5860707,18.5515373 10.1383554,19 9.58607067,19 C9.03378592,19 8.58607067,18.5515373 8.58607067,17.9983306 L8.58607067,17.9983306 L8.586,16.444 L4.73275657,20.2985225 C4.37707076,20.6542083 3.81112455,20.6817496 3.41962694,20.3773484 L3.32560952,20.2943305 L3.2917402,20.2604612 C2.90680925,19.8755302 2.90013285,19.2407294 3.28754819,18.8533141 L3.28754819,18.8533141 L7.137,15.003 L5.58607067,15.0033389 C5.07323483,15.0033389 4.65056351,14.6166542 4.5927984,14.1184853 L4.58607067,14.0016694 C4.58607067,13.4484627 5.03378592,13 5.58607067,13 L5.58607067,13 Z" id="Clip-5" fill="#3F51B5"></path>
    </g>
</svg>