<?xml version="1.0" encoding="UTF-8"?>
<svg width="24px" height="24px" viewBox="0 0 24 24" version="1.1" xmlns="http://www.w3.org/2000/svg" xmlns:xlink="http://www.w3.org/1999/xlink">
    <!-- Generator: Sketch 63.1 (92452) - https://sketch.com -->
    <title>Icons/Invite</title>
    <desc>Created with Sketch.</desc>
    <g id="Icons/Invite" stroke="none" stroke-width="1" fill="none" fill-rule="evenodd">
        <path d="M14.9914698,12 C16.1007504,12 17,12.8938878 17,14.006104 L17,18.4460997 C17,21.8513001 5,21.8513001 5,18.4460997 L5,14.0001103 L5,14.0001103 C5,12.8954799 5.90195036,12 7.0085302,12 L14.9914698,12 Z M11,3 C13.209139,3 15,4.790861 15,7 C15,9.209139 13.209139,11 11,11 C8.790861,11 7,9.209139 7,7 C7,4.790861 8.790861,3 11,3 Z M19,6 C19.5522847,6 20,6.45097518 20,6.99077797 L20,8 L21.009,8 C21.5169286,8 21.9360459,8.38197449 21.9933284,8.88250765 L22,9 C22,9.552 21.549,10 21.009,10 L21.009,10 L20,10 L20,11.009222 C20,11.5173285 19.6172798,11.9361019 19.1173326,11.9933343 L19,12 C18.4477153,12 18,11.5490248 18,11.009222 L18,10 L16.991,10 C16.4830714,10 16.0639541,9.61716327 16.0066716,9.11730758 L16,9 C16,8.448 16.451,8 16.991,8 L16.991,8 L18,8 L18,6.99077797 C18,6.48267152 18.3827202,6.06389808 18.8826674,6.00666569 L19,6 Z" id="Rectangle-7" fill="#3F51B5"></path>
    </g>
</svg>