<?xml version="1.0" encoding="UTF-8"?>
<svg width="24px" height="24px" viewBox="0 0 24 24" version="1.1" xmlns="http://www.w3.org/2000/svg" xmlns:xlink="http://www.w3.org/1999/xlink">
    <!-- Generator: Sketch 63.1 (92452) - https://sketch.com -->
    <title>Icons/Link</title>
    <desc>Created with Sketch.</desc>
    <g id="Icons/Link" stroke="none" stroke-width="1" fill="none" fill-rule="evenodd">
        <path d="M7.26951306,10.3413007 C9.09039864,8.55289976 12.0700296,8.55289976 13.8919497,10.3413007 L13.8919497,10.3413007 L15,11.4295834 L13.537084,12.8674171 L12.4279991,11.7781183 C11.4078894,10.7751912 9.75253884,10.7751912 8.73242909,11.7781183 L8.73242909,11.7781183 L5.82935811,14.6293985 C4.74613811,15.6932939 4.81442132,17.4644205 6.03213855,18.439912 C7.09156288,19.2873702 8.66724966,19.1014171 9.63356053,18.1523452 L9.63356053,18.1523452 L10.6184941,17.185999 C11.0219858,16.7886895 11.6779184,16.7886895 12.0814101,17.185999 L12.0814101,17.185999 L12.1675814,17.2816102 C12.4835427,17.6797935 12.454819,18.2560694 12.0814101,18.6228166 L12.0814101,18.6228166 L11.1440679,19.5434367 C9.41733036,21.2393692 6.61461501,21.5299844 4.72234245,20.0139081 C2.55176407,18.2722494 2.43278575,15.0917408 4.36540749,13.1925809 L4.36540749,13.1925809 Z M12.855884,5.45656332 C14.5826215,3.76063081 17.3853369,3.47001565 19.2776094,4.98609193 C21.4481878,6.72775061 21.5671661,9.90825917 19.6345444,11.8074191 L19.6345444,11.8074191 L16.7304388,14.6586993 C14.9095533,16.4471002 11.9299223,16.4471002 10.1080021,14.6586993 L10.1080021,14.6586993 L8.99995189,13.5704166 L10.4628679,12.1325829 L11.5719528,13.2218817 C12.5920625,14.2248088 14.247413,14.2248088 15.2675228,13.2218817 L15.2675228,13.2218817 L18.1705938,10.3706015 C19.2538138,9.30670611 19.1855306,7.53557946 17.9678133,6.56008802 C16.908389,5.71262983 15.3327022,5.89858288 14.3663914,6.84765477 L14.3663914,6.84765477 L13.3814578,7.81400098 C12.9779661,8.21131051 12.3220335,8.21131051 11.9185418,7.81400098 L11.9185418,7.81400098 L11.8323705,7.71838976 C11.5164091,7.32020654 11.5451329,6.74393064 11.9185418,6.37718337 L11.9185418,6.37718337 Z" id="Fill-1" fill="#3F51B5"></path>
    </g>
</svg>