<?xml version="1.0" encoding="UTF-8"?>
<svg width="124px" height="24px" viewBox="0 0 124 24" version="1.1" xmlns="http://www.w3.org/2000/svg" xmlns:xlink="http://www.w3.org/1999/xlink">
    <!-- Generator: Sketch 63.1 (92452) - https://sketch.com -->
    <title>Logotype / Full / Blue &amp; White</title>
    <desc>Created with Sketch.</desc>
    <g id="Logotype-/-Full-/-Blue-&amp;-White" stroke="none" stroke-width="1" fill="none" fill-rule="evenodd">
        <rect x="0" y="0" width="124" height="24"></rect>
        <path d="M89.1372848,9 C89.893758,9 90.4997377,9.19903479 91.0035764,9.54586769 C91.5079872,9.9430927 91.7600496,10.4889604 91.7600496,11.1350493 L90.5498069,11.1350493 C90.4997377,10.3405992 90.045396,9.9430927 89.0860712,9.9430927 C88.7842258,9.9430927 88.4809499,10.0424693 88.2789567,10.1421275 C87.9768251,10.2904886 87.8758285,10.539634 87.8758285,10.8363563 C87.8758285,11.2834104 88.128177,11.5314297 88.6829431,11.680917 C89.187354,11.8295596 89.8434028,11.9784838 90.5995899,12.1769556 C91.0539316,12.3264428 91.3569215,12.5744621 91.6089838,12.872029 C91.8109771,13.2194249 91.9119737,13.5175548 91.9119737,13.9150613 C91.9119737,14.6101347 91.6599113,15.1058918 91.1048591,15.5036799 C90.5995899,15.8009652 89.9944686,16 89.2382814,16 C88.4308807,16 87.7748319,15.8009652 87.2698488,15.4045848 C86.7153688,15.0070782 86.4126651,14.411663 86.4126651,13.6169314 L87.6237662,13.6169314 C87.6237662,14.11297 87.7748319,14.460366 88.128177,14.7095114 C88.4308807,14.9074201 88.8340089,15.0571888 89.3384197,15.0571888 C89.7924753,15.0571888 90.1964618,14.9074201 90.4485242,14.7095114 C90.6505174,14.5600241 90.7518001,14.3120048 90.7518001,14.0138749 C90.7518001,13.6169314 90.5498069,13.3689121 90.1964618,13.2194249 C90.1455343,13.1698773 89.4900577,13.0215162 88.17796,12.6741202 C87.1697106,12.3759903 86.6644414,11.8295596 86.6644414,10.9861251 C86.6644414,10.3405992 86.9165037,9.84343455 87.4718421,9.49603861 C87.9261838,9.14836115 88.4809499,9 89.1372848,9 Z M97.1586477,9 C97.9657622,9 98.6218111,9.19903479 99.1262219,9.59541524 C99.6815602,10.0424693 99.984264,10.5886185 100.034333,11.2834104 L98.8741596,11.2834104 C98.6218111,10.3898653 98.0667589,9.9430927 97.1586477,9.9430927 C96.503171,9.9430927 95.998188,10.2409411 95.5950598,10.7375427 C95.29207,11.2338629 95.1407181,11.7805751 95.1407181,12.4756485 C95.1407181,13.2194249 95.29207,13.7655741 95.5950598,14.2624573 C95.998188,14.7590589 96.503171,15.0571888 97.1586477,15.0571888 C97.6636307,15.0571888 98.1179724,14.858154 98.4198178,14.5104766 C98.6730247,14.2126282 98.8741596,13.8159662 98.925087,13.2695355 L100.085547,13.2695355 C100.034333,14.11297 99.7322016,14.7590589 99.1771494,15.2550975 C98.6730247,15.7519807 98.0166897,16 97.1586477,16 C96.2004673,16 95.3930666,15.6526041 94.7879453,14.9575307 C94.232893,14.3120048 93.9296171,13.4685703 93.9296171,12.4756485 C93.9296171,11.5314297 94.232893,10.6879952 94.7879453,10.0424693 C95.3930666,9.34739594 96.2004673,9 97.1586477,9 Z M105.382576,9 C106.341042,9 107.148443,9.34739594 107.753564,10.0424693 C108.308617,10.6879952 108.61132,11.5314297 108.61132,12.4756485 C108.61132,13.4685703 108.308617,14.3120048 107.753564,14.9575307 C107.148443,15.6526041 106.341042,16 105.382576,16 C104.373468,16 103.56664,15.6526041 102.96066,14.9575307 C102.405894,14.3120048 102.102904,13.4685703 102.102904,12.4756485 C102.102904,11.5314297 102.405894,10.6879952 102.96066,10.0424693 C103.56664,9.34739594 104.373468,9 105.382576,9 Z M112.092699,9.14836115 L112.092699,13.0710637 C112.092699,13.666479 112.193982,14.0639855 112.344762,14.3621154 C112.547041,14.7590589 113.051166,14.9575307 113.707215,14.9575307 C114.413619,14.9575307 114.867388,14.7590589 115.069668,14.3621154 C115.220447,14.0639855 115.32173,13.666479 115.32173,13.0710637 L115.32173,9.14836115 L116.48219,9.14836115 L116.48219,13.4184597 C116.48219,14.2624573 116.229555,14.9074201 115.725716,15.3544742 C115.220447,15.7519807 114.565543,16 113.707215,16 C112.850031,16 112.193982,15.7519807 111.689285,15.3544742 C111.184874,14.9074201 110.93224,14.2624573 110.93224,13.4184597 L110.93224,9.14836115 L112.092699,9.14836115 Z M47.6651566,9.14836115 L49.530876,14.3621154 L51.3473845,9.14836115 L53.0128272,9.14836115 L53.0128272,15.8510758 L51.9024367,15.8510758 L51.9024367,10.6879952 L51.8526537,10.6879952 L49.986076,15.8510758 L49.0267512,15.8510758 L47.1601736,10.6879952 L47.1101044,10.6879952 L47.1101044,15.8510758 L46,15.8510758 L46,9.14836115 L47.6651566,9.14836115 Z M60.6310619,9.14836115 L60.6310619,10.1919566 L56.9479758,10.1919566 L56.9479758,11.9289363 L60.3789996,11.9289363 L60.3789996,12.872029 L56.9479758,12.872029 L56.9479758,14.8091695 L60.6811311,14.8091695 L60.6811311,15.8510758 L55.7878022,15.8510758 L55.7878022,9.14836115 L60.6310619,9.14836115 Z M65.8777359,9.14836115 C66.8877021,9.14836115 67.6441753,9.49603861 68.1491584,10.1421275 C68.6026417,10.7375427 68.8552763,11.5314297 68.8552763,12.4756485 C68.8552763,13.4685703 68.6026417,14.2624573 68.1491584,14.858154 C67.6441753,15.5036799 66.8877021,15.8510758 65.8777359,15.8510758 L63.0526918,15.8510758 L63.0526918,9.14836115 L65.8777359,9.14836115 Z M72.4373659,9.14836115 L72.4373659,15.8510758 L71.2760479,15.8510758 L71.2760479,9.14836115 L72.4373659,9.14836115 Z M78.2891612,9.14836115 L80.8627152,15.8510758 L79.601545,15.8510758 L78.9955653,14.0639855 L76.2715178,14.0639855 L75.6663965,15.8510758 L74.4049402,15.8510758 L77.027991,9.14836115 L78.2891612,9.14836115 Z M124,9.14836115 L124,10.1919566 L121.880216,10.1919566 L121.880216,15.8510758 L120.669973,15.8510758 L120.669973,10.1919566 L118.550474,10.1919566 L118.550474,9.14836115 L124,9.14836115 Z M105.382576,9.9430927 C104.676458,9.9430927 104.171761,10.2409411 103.768347,10.7375427 C103.465357,11.2338629 103.314005,11.7805751 103.314005,12.4756485 C103.314005,13.2194249 103.465357,13.7655741 103.768347,14.2624573 C104.171761,14.7590589 104.676458,15.0571888 105.382576,15.0571888 C106.038625,15.0571888 106.543322,14.7590589 106.946164,14.2624573 C107.249154,13.7655741 107.400505,13.2194249 107.400505,12.4756485 C107.400505,11.7805751 107.249154,11.2338629 106.946164,10.7375427 C106.543322,10.2409411 106.038625,9.9430927 105.382576,9.9430927 Z M65.4242525,10.1421275 L64.2635067,10.1421275 L64.2635067,14.858154 L65.4242525,14.858154 C66.2817224,14.858154 66.8877021,14.6594008 67.2410472,14.1630806 C67.5428926,13.8159662 67.6942444,13.2695355 67.6942444,12.4756485 C67.6942444,11.7304645 67.5428926,11.1840338 67.2410472,10.8363563 C66.8877021,10.3405992 66.2817224,10.1421275 65.4242525,10.1421275 Z M77.6339707,10.3405992 L76.6248629,13.1698773 L78.6931477,13.1698773 L77.6339707,10.3405992 Z" id="Combined-Shape" fill="#FFFFFF"></path>
        <g id="Logotype/Icon" fill="#2296F3">
            <path d="M6.61444444,21.8624577 C6.96755556,21.8624577 7.12466667,22.250421 6.88866667,22.4833752 L6.88866667,22.4833752 L5.55688889,23.8035954 C5.20422222,24.1917788 4.616,23.6481458 5.04733333,23.2987146 L5.04733333,23.2987146 L6.37977778,21.9784944 C6.41933333,21.9007697 6.49688889,21.8624577 6.57555556,21.8624577 L6.57555556,21.8624577 Z M27.3444444,21.8624577 C27.4622222,21.8624577 27.5408889,21.9007697 27.6193333,21.9784944 L27.6193333,21.9784944 L28.9508889,23.2987146 C29.3037778,23.6481458 28.7551111,24.1532467 28.442,23.8035954 L28.442,23.8035954 L27.1095556,22.4833752 C26.8744444,22.288733 26.9922222,21.9007697 27.3053333,21.8624577 L27.3053333,21.8624577 Z M12.1008889,16.4259073 C12.4537778,16.4259073 12.61,16.8140908 12.3751111,17.0472651 L12.3751111,17.0472651 L8.26066667,21.1239623 C7.908,21.5128064 7.35933333,20.968733 7.712,20.6190816 L7.712,20.6190816 L11.8662222,16.5423844 C11.9051111,16.4653201 12.0226667,16.4259073 12.1008889,16.4259073 Z M21.8584444,16.4259073 C21.9757778,16.4259073 22.0542222,16.4653201 22.1326667,16.5423844 L22.1326667,16.5423844 L26.2473333,20.6190816 C26.6,20.968733 26.0902222,21.5128064 25.7375556,21.1239623 L25.7375556,21.1239623 L21.5842222,17.0472651 C21.3882222,16.8532834 21.5055556,16.4653201 21.8195556,16.4259073 L21.8195556,16.4259073 Z M29.6884444,18.8791917 C29.7268889,18.8791917 29.8055556,18.8791917 29.8451111,18.9186045 L29.8451111,18.9186045 L31.4908889,19.8506412 C31.9608889,20.0833752 31.5691111,20.7822376 31.138,20.471999 L31.138,20.471999 L29.4926667,19.5397421 C29.1788889,19.3842926 29.296,18.8791917 29.6488889,18.8791917 L29.6488889,18.8791917 Z M4.25555556,18.8791917 C4.64733333,18.8408798 4.80422222,19.3457605 4.49111111,19.5397421 L4.49111111,19.5397421 L2.84488889,20.471999 C2.41355556,20.7822376 1.98311111,20.0833752 2.49288889,19.8506412 L2.49288889,19.8506412 L4.09866667,18.9186045 C4.13844444,18.8791917 4.21688889,18.8791917 4.25555556,18.8791917 Z M10.9962222,14.9964761 L11.071323,15.0029744 C11.4064316,15.0624949 11.5211556,15.5149201 11.192,15.6955587 L11.192,15.6955587 L6.13733333,18.6077055 C5.70622222,18.8791917 5.31377778,18.1803293 5.78377778,17.9478155 L5.78377778,17.9478155 L10.8393333,15.0748614 C10.8788889,15.0356688 10.9177778,15.0356688 10.9962222,14.9964761 L10.9962222,14.9964761 Z M22.9088889,14.9964761 C22.9873333,14.9964761 23.0657778,15.0356688 23.1442222,15.0748614 L23.1442222,15.0748614 L28.1991111,17.9478155 C28.6691111,18.1803293 28.2775556,18.8791917 27.8073333,18.6077055 L27.8073333,18.6077055 L22.752,15.6955587 C22.4388889,15.5405495 22.5562222,15.0356688 22.9088889,14.9964761 Z M2.85244444,15.3390816 C3.28355556,15.3390816 3.36222222,15.9595587 2.93155556,16.0766963 L2.93155556,16.0766963 L1.12844444,16.5423844 C0.618888889,16.6978339 0.423555556,15.9595587 0.932666667,15.8433018 L0.932666667,15.8433018 L2.73533333,15.3776137 C2.77466667,15.3390816 2.81355556,15.3390816 2.85244444,15.3390816 Z M31.1743125,15.3396837 C31.20175,15.3414899 31.224,15.3487146 31.224,15.3776137 L31.224,15.3776137 L33.0655556,15.8433018 C33.5751111,15.9595587 33.3793333,16.6978339 32.8697778,16.5423844 L32.8697778,16.5423844 L31.0673333,16.0766963 C30.6357778,15.9595587 30.7144444,15.3390816 31.1457778,15.3390816 L31.1457778,15.3390816 Z M23.7393333,13.3585311 L29.3822222,14.872733 C29.8528889,14.9889899 29.6562222,15.7270449 29.1864444,15.5715954 L29.1864444,15.5715954 L23.5435556,14.0965862 C23.152,13.9796688 23.2297778,13.3977238 23.622,13.3585311 L23.622,13.3585311 L23.7393333,13.3585311 Z M10.3375556,13.3585311 C10.7686667,13.3585311 10.8471111,13.9796688 10.4157778,14.0965862 L10.4157778,14.0965862 L4.77311111,15.5715954 C4.34177778,15.6878522 4.146,14.9889899 4.616,14.872733 L4.616,14.872733 L10.22,13.3585311 Z M28.442,0.118017378 C28.7551111,-0.231413814 29.3037778,0.272806369 28.9508889,0.622898112 L28.9508889,0.622898112 L26.9526667,2.64132013 L17.2342222,12.2714853 C17.1166667,12.4269348 16.8822222,12.4269348 16.7253333,12.2714853 L16.7253333,12.2714853 L7.04555556,2.64132013 L5.04733333,0.622898112 C4.81177778,0.3897238 4.96866667,0.00109994718 5.28244444,0.00109994718 C5.4,0.00109994718 5.47844444,0.0402926077 5.55688889,0.118017378 L5.55688889,0.118017378 L7.55511111,2.09790729 L16.9995556,11.4946779 L26.404,2.09790729 Z M2.37488889,11.6193018 C2.88422222,11.6193018 2.806,12.3562559 2.336,12.3175036 L2.336,12.3175036 L0.454888889,12.3175036 C-0.0151111111,12.3175036 -0.0546666667,11.6571733 0.416,11.6193018 L0.416,11.6193018 Z M10.134,11.6193018 C10.6431111,11.6193018 10.5651111,12.3562559 10.0944444,12.3175036 L10.0944444,12.3175036 L4.25555556,12.3175036 C3.78555556,12.3175036 3.74666667,11.6571733 4.21688889,11.6193018 L4.21688889,11.6193018 Z M29.7664444,11.6193018 C30.2368889,11.6193018 30.1971111,12.3562559 29.7268889,12.3175036 L29.7268889,12.3175036 L23.8886667,12.3175036 C23.4186667,12.3175036 23.3788889,11.6571733 23.8488889,11.6193018 L23.8488889,11.6193018 Z M33.5677778,11.6193018 C34.0773333,11.6193018 33.9986667,12.3562559 33.5286667,12.3175036 L33.5286667,12.3175036 L31.6475556,12.3175036 C31.1771111,12.3175036 31.138,11.6571733 31.608,11.6193018 L31.608,11.6193018 Z M29.3037778,8.31082472 C29.7348889,8.31082472 29.8133333,8.97137518 29.3822222,9.0484394 L29.3822222,9.0484394 L23.7393333,10.5626412 C23.2693333,10.6788981 23.0735556,9.98047609 23.5435556,9.82502655 L23.5435556,9.82502655 L29.1864444,8.34935683 C29.2253333,8.34935683 29.2646667,8.31082472 29.3037778,8.31082472 Z M4.69466667,8.31082472 L4.73258436,8.32081452 C4.75582716,8.33223145 4.77311111,8.34935683 4.77311111,8.34935683 L4.77311111,8.34935683 L10.4157778,9.82502655 C10.8864444,9.98047609 10.69,10.640366 10.22,10.5626412 L10.22,10.5626412 L4.616,9.0484394 C4.18555556,8.93218252 4.26355556,8.34935683 4.69466667,8.31082472 L4.69466667,8.31082472 Z M5.98044444,5.28946692 C6.01933333,5.28946692 6.09777778,5.32865958 6.13733333,5.32865958 L6.13733333,5.32865958 L11.192,8.24080637 C11.6226667,8.47332013 11.2706667,9.13365041 10.8393333,8.86194398 L10.8393333,8.86194398 L5.78377778,5.9883293 C5.43177778,5.79434765 5.54933333,5.32865958 5.94088889,5.28946692 L5.94088889,5.28946692 Z M28.042,5.28946692 C28.3946667,5.28946692 28.5128889,5.79434765 28.1991111,5.9883293 L28.1991111,5.9883293 L23.1442222,8.86194398 C22.7131111,9.13365041 22.3206667,8.47332013 22.752,8.24080637 L22.752,8.24080637 L27.8073333,5.32865958 C27.8857778,5.32865958 27.9246667,5.28946692 28.0033333,5.28946692 L28.0033333,5.28946692 Z M1.01111111,7.34025591 C1.05022222,7.34025591 1.08955556,7.34025591 1.12844444,7.37878802 L1.12844444,7.37878802 L2.93155556,7.84513664 C3.40111111,7.96139353 3.206,8.6990082 2.73533333,8.54421921 L2.73533333,8.54421921 L0.932666667,8.07765041 C0.501555556,7.96139353 0.579777778,7.34025591 1.01111111,7.34025591 Z M32.9877778,7.34025591 C33.4184444,7.34025591 33.4964444,7.96139353 33.0655556,8.07765041 L33.0655556,8.07765041 L31.224,8.54421921 C30.7928889,8.66025591 30.5973333,8.00058619 31.0673333,7.84513664 L31.0673333,7.84513664 L32.8697778,7.37878802 C32.9093333,7.34025591 32.9484444,7.34025591 32.9877778,7.34025591 Z M31.3337778,3.38730178 C31.6866667,3.42627426 31.8037778,3.93071463 31.4908889,4.08616417 L31.4908889,4.08616417 L29.8451111,5.01754031 C29.414,5.28946692 29.022,4.62957701 29.4926667,4.39706325 L29.4926667,4.39706325 L31.138,3.46502655 C31.1771111,3.42627426 31.2166667,3.42627426 31.2951111,3.38730178 L31.2951111,3.38730178 Z M2.61022222,3.38730178 C2.68866667,3.38730178 2.76711111,3.42627426 2.84488889,3.46502655 L2.84488889,3.46502655 L4.49111111,4.39706325 C4.92222222,4.62957701 4.53,5.28946692 4.09866667,5.01754031 L4.09866667,5.01754031 L2.49288889,4.08616417 C2.13933333,3.93071463 2.25733333,3.42627426 2.61022222,3.38730178 Z" id="Combined-Shape"></path>
        </g>
    </g>
</svg>