<?xml version="1.0" encoding="UTF-8"?>
<svg width="24px" height="24px" viewBox="0 0 24 24" version="1.1" xmlns="http://www.w3.org/2000/svg" xmlns:xlink="http://www.w3.org/1999/xlink">
    <!-- Generator: Sketch 63.1 (92452) - https://sketch.com -->
    <title>Icons/Mail</title>
    <desc>Created with Sketch.</desc>
    <g id="Icons/Mail" stroke="none" stroke-width="1" fill="none" fill-rule="evenodd">
        <path d="M19,5 C20.1,5 21,5.9 21,7 L21,17 C21,18.1 20.1,19 19,19 L5,19 C3.9,19 3,18.1 3,17 L3,7 C3,5.9 3.9,5 5,5 L19,5 Z M19,8.751 L14.1664049,13.5861203 C12.9479161,14.8046266 10.9725504,14.8046266 9.75614105,13.5861203 L5,8.831 L5,17 L19,17 L19,8.751 Z M17.923,7 L5.996,7 L11.1690764,12.1719288 C11.6065235,12.6093571 12.3145668,12.6093571 12.752014,12.1719288 L17.923,7 Z" id="Combined-Shape" fill="#3F51B5"></path>
    </g>
</svg>