<?xml version="1.0" encoding="UTF-8"?>
<svg width="24px" height="24px" viewBox="0 0 24 24" version="1.1" xmlns="http://www.w3.org/2000/svg" xmlns:xlink="http://www.w3.org/1999/xlink">
    <!-- Generator: Sketch 63.1 (92452) - https://sketch.com -->
    <title>Icons/Mute Off</title>
    <desc>Created with Sketch.</desc>
    <g id="Icons/Mute-Off" stroke="none" stroke-width="1" fill="none" fill-rule="evenodd">
        <path d="M17.4889725,8.84106829 C17.4972501,8.89283147 17.5015507,8.94591656 17.5015507,9 L17.5015507,9 L17.5015507,12.006 C17.5015507,14.975 15.3335507,17.433 12.5015507,17.91 L12.5015507,17.91 L12.5015507,20.0052958 C12.5015507,20.5440599 12.0538355,21 11.5015507,21 L11.5015507,21 L11.3842182,20.9933079 C10.8842709,20.9358487 10.5015507,20.5154158 10.5015507,20.0052958 L10.5015507,20.0052958 L10.5015507,17.91 C9.9446076,17.8161619 9.41363993,17.6456692 8.91991317,17.409848 L10.4660986,15.8640564 C10.7964966,15.9527023 11.143622,16 11.5015507,16 C13.7075507,16 15.5015507,14.209 15.5015507,12.006 L15.5015507,12.006 L15.501,10.827 Z M18.2962525,3.79108468 C18.688312,3.39902512 19.3181332,3.40236893 19.7086575,3.79289322 L19.7086575,3.79289322 L19.7923956,3.88762183 C20.0993166,4.28158598 20.070028,4.84573627 19.710466,5.20529824 L19.710466,5.20529824 L4.70684895,20.2089153 C4.3147894,20.6009749 3.68496822,20.5976311 3.29444393,20.2071068 C2.90119697,19.8138598 2.90310993,19.1842272 3.29263539,18.7947018 L3.29263539,18.7947018 Z M14.501,11.827 L14.5015507,12.003 C14.5015507,13.658 13.1555507,15 11.5015507,15 C11.4453983,15 11.3896065,14.9984589 11.3342154,14.9954166 L14.501,11.827 Z M6.50155071,8 C7.05355071,8 7.50155071,8.448 7.50155071,9 L7.50155071,9 L7.50155071,12.006 C7.50155071,12.3618742 7.54856252,12.7071675 7.63671581,13.035984 L6.08786946,14.5862213 C5.71205964,13.8043309 5.50155071,12.9291068 5.50155071,12.006 L5.50155071,12.006 L5.50155071,9 C5.50155071,8.448 5.94955071,8 6.50155071,8 Z M11.5015507,3 C13.1585507,3 14.5015507,4.342 14.5015507,5.997 L14.5015507,5.997 L14.501,6.172 L8.506,12.167 L8.50155071,12.003 L8.50155071,5.997 C8.50155071,4.342 9.84755071,3 11.5015507,3 Z" id="Combined-Shape" fill="#3F51B5"></path>
    </g>
</svg>