<?xml version="1.0" encoding="UTF-8"?>
<svg width="24px" height="24px" viewBox="0 0 24 24" version="1.1" xmlns="http://www.w3.org/2000/svg" xmlns:xlink="http://www.w3.org/1999/xlink">
    <!-- Generator: Sketch 63.1 (92452) - https://sketch.com -->
    <title>Icons/Mute On</title>
    <desc>Created with Sketch.</desc>
    <g id="Icons/Mute-On" stroke="none" stroke-width="1" fill="none" fill-rule="evenodd">
        <path d="M17,8 C17.5522847,8 18,8.44771525 18,9 L18,9 L18,12.0062606 C18,14.9753387 15.833477,17.4401918 13.0006619,17.9167356 L13,19.9906311 C13,20.5082716 12.6172798,20.9349029 12.1173326,20.9932092 L12,21 C11.4477153,21 11,20.5566468 11,19.9906311 L11.0001915,17.916839 C8.16238395,17.4395745 6,14.9660892 6,12.0062606 L6,9 L6.00672773,8.88337887 C6.06449284,8.38604019 6.48716416,8 7,8 C7.55228475,8 8,8.44771525 8,9 L8,9 L8,12.0062606 C8,14.2046639 9.79487533,16 12,16 C14.205539,16 16,14.2088018 16,12.0062606 L16,9 L16.0067277,8.88337887 C16.0600494,8.42429701 16.424297,8.06004937 16.8833789,8.00672773 Z M12,3 C13.6568542,3 15,4.34162278 15,5.99715203 L15,12.002848 C15,13.5990121 13.7479452,14.9037523 12.1759369,14.9949121 L12,15 C10.3431458,15 9,13.6583772 9,12.002848 L9,5.99715203 C9,4.40098786 10.2520548,3.09624766 11.8240631,3.00508786 L12,3 Z" id="Combined-Shape" fill="#3F51B5"></path>
    </g>
</svg>