<?xml version="1.0" encoding="UTF-8"?>
<svg width="24px" height="24px" viewBox="0 0 24 24" version="1.1" xmlns="http://www.w3.org/2000/svg" xmlns:xlink="http://www.w3.org/1999/xlink">
    <!-- Generator: Sketch 63.1 (92452) - https://sketch.com -->
    <title>Icons/Notification Active</title>
    <desc>Created with Sketch.</desc>
    <g id="Icons/Notification-Active" stroke="none" stroke-width="1" fill="none" fill-rule="evenodd">
        <path d="M16.5995275,18 C16.9925275,18 17.3655275,18.233 17.5245275,18.618 L17.5245275,18.618 L17.9255275,19.585 C18.1365275,20.097 17.8935275,20.682 17.3845275,20.892 C16.8735275,21.104 16.2885275,20.861 16.0775275,20.351 L16.0775275,20.351 L15.6755275,19.383 C15.4655275,18.873 15.7085275,18.288 16.2175275,18.076 C16.3425275,18.025 16.4725275,18 16.5995275,18 Z M14.9539695,4 C15.9259695,4 16.8989695,4.28 17.7419695,4.839 C17.7619695,4.813 17.7849695,4.789 17.8079695,4.765 C18.2029695,4.371 18.8419695,4.371 19.2359695,4.765 C19.6299695,5.16 19.6299695,5.799 19.2359695,6.192 C19.2119695,6.216 19.1869695,6.239 19.1619695,6.259 C20.4629695,8.22 20.2499695,10.888 18.5219695,12.615 L17.7971246,13.3401835 C17.0150037,14.1226696 15.9838327,15.5506132 15.4854363,16.546577 L13.9759695,19.563 C13.7269695,20.063 13.2029695,20.147 12.8049695,19.75 L4.24896952,11.195 C3.85196952,10.798 3.94096952,10.271 4.43596952,10.023 L7.45302014,8.51478851 C8.44158188,8.02061046 9.8737602,6.98891469 10.6591246,6.20318349 L11.3839695,5.478 C12.3699695,4.493 13.6619695,4 14.9539695,4 Z M6.485,14.8395 L9.314,17.6685 C8.533,18.4495 7.266,18.4495 6.485,17.6685 C5.704,16.8875 5.704,15.6205 6.485,14.8395 L6.485,14.8395 Z M19.0006656,15.6000004 C19.1286656,15.6000004 19.2576656,15.6250004 19.3826656,15.6770004 L19.3826656,15.6770004 L20.3516656,16.0780004 C20.8606656,16.2900004 21.1036656,16.8740004 20.8926656,17.3840004 C20.6806656,17.8950004 20.0946656,18.1370004 19.5856656,17.9260004 L19.5856656,17.9260004 L18.6166656,17.5250004 C18.1076656,17.3130004 17.8646656,16.7280004 18.0766656,16.2190004 C18.2356656,15.8330004 18.6086656,15.6000004 19.0006656,15.6000004 Z M4.38323169,6.07623169 L5.35123169,6.47723169 C5.82480312,6.67408883 6.06729292,7.19256332 5.93057972,7.67396128 L5.89223169,7.78423169 C5.68023169,8.29423169 5.09523169,8.53623169 4.58523169,8.32523169 L3.61723169,7.92423169 C3.14366026,7.72737455 2.90117047,7.20890006 3.03788366,6.7275021 L3.07623169,6.61723169 C3.28823169,6.10723169 3.87323169,5.86523169 4.38323169,6.07623169 Z M7.92423169,3.61765083 L8.32523169,4.58565083 C8.52116026,5.05922226 8.3264919,5.59746206 7.88934795,5.84087569 L7.78423169,5.89165083 C7.27323169,6.10365083 6.68823169,5.86065083 6.47723169,5.35065083 L6.07623169,4.38265083 C5.88030312,3.9090794 6.07497149,3.37083961 6.51211544,3.12742598 L6.61723169,3.07665083 C7.12823169,2.86465083 7.71323169,3.10765083 7.92423169,3.61765083 Z" id="Clip-2" fill="#3F51B5"></path>
    </g>
</svg>