<?xml version="1.0" encoding="UTF-8"?>
<svg width="24px" height="24px" viewBox="0 0 24 24" version="1.1" xmlns="http://www.w3.org/2000/svg" xmlns:xlink="http://www.w3.org/1999/xlink">
    <!-- Generator: Sketch 63.1 (92452) - https://sketch.com -->
    <title>Icons/Notification Default</title>
    <desc>Created with Sketch.</desc>
    <g id="Icons/Notification-Default" stroke="none" stroke-width="1" fill="none" fill-rule="evenodd">
        <path d="M14.9539695,4 C15.9259695,4 16.8989695,4.28 17.7419695,4.839 C17.7619695,4.813 17.7849695,4.789 17.8079695,4.765 C18.2029695,4.371 18.8419695,4.371 19.2359695,4.765 C19.6299695,5.16 19.6299695,5.799 19.2359695,6.192 C19.2119695,6.216 19.1869695,6.239 19.1619695,6.259 C20.4629695,8.22 20.2499695,10.888 18.5219695,12.615 L18.5219695,12.615 L17.7971246,13.3401835 C17.0117602,14.1259147 15.9800256,15.5582209 15.4854363,16.546577 L15.4854363,16.546577 L13.9759695,19.563 C13.7269695,20.063 13.2029695,20.147 12.8049695,19.75 L12.8049695,19.75 L4.24896952,11.195 C3.85196952,10.798 3.94096952,10.271 4.43596952,10.023 L4.43596952,10.023 L7.45302014,8.51478851 C8.44919123,8.01680658 9.87700374,6.98566964 10.6591246,6.20318349 L10.6591246,6.20318349 L11.3839695,5.478 C12.3699695,4.493 13.6619695,4 14.9539695,4 Z M6.48696952,14.84 L9.31596952,17.669 C8.53496952,18.45 7.26796952,18.45 6.48696952,17.669 C5.70596952,16.888 5.70596952,15.621 6.48696952,14.84 L6.48696952,14.84 Z" id="Clip-5" fill="#3F51B5"></path>
    </g>
</svg>