<?xml version="1.0" encoding="UTF-8"?>
<svg width="24px" height="24px" viewBox="0 0 24 24" version="1.1" xmlns="http://www.w3.org/2000/svg" xmlns:xlink="http://www.w3.org/1999/xlink">
    <!-- Generator: Sketch 63.1 (92452) - https://sketch.com -->
    <title>Icons/People</title>
    <desc>Created with Sketch.</desc>
    <g id="Icons/People" stroke="none" stroke-width="1" fill="none" fill-rule="evenodd">
        <path d="M19.000385,13 C20.1047419,13 21,13.8854554 21,15.000312 L21,18.7298664 C21,21.7567112 11,21.7567112 11,18.7298664 L11,14.9997846 L11,14.9997846 C11,13.8953341 11.8874333,13 12.999615,13 L19.000385,13 Z M11,10.0002544 C12.1023654,10.0002544 12.995731,10.8850202 12.9999847,12.0002544 L12.9999847,12.0002544 C11.3416228,12.0002544 10,13.3459556 10,15.0059623 L10,15.0059623 L10,17.8131882 C7.05441023,18.3475937 3,17.7503065 3,15.8292544 L3,15.8292544 L3,12.0032544 C3,10.8972544 3.887,10.0002544 5,10.0002544 L5,10.0002544 Z M16,6 C17.6568542,6 19,7.34314575 19,9 C19,10.6568542 17.6568542,12 16,12 C14.3431458,12 13,10.6568542 13,9 C13,7.34314575 14.3431458,6 16,6 Z M8,3 C9.65685425,3 11,4.34314575 11,6 C11,7.65685425 9.65685425,9 8,9 C6.34314575,9 5,7.65685425 5,6 C5,4.34314575 6.34314575,3 8,3 Z" id="Combined-Shape" fill="#3F51B5"></path>
    </g>
</svg>