<?xml version="1.0" encoding="UTF-8"?>
<svg width="24px" height="24px" viewBox="0 0 24 24" version="1.1" xmlns="http://www.w3.org/2000/svg" xmlns:xlink="http://www.w3.org/1999/xlink">
    <!-- Generator: Sketch 63.1 (92452) - https://sketch.com -->
    <title>Icons/Preferences</title>
    <desc>Created with Sketch.</desc>
    <g id="Icons/Preferences" stroke="none" stroke-width="1" fill="none" fill-rule="evenodd">
        <path d="M16,13 C17.3117705,13 18.426463,13.8412118 18.8342341,15.013792 C18.8875938,15.0045796 18.942694,15 18.9989566,15 L20.0010434,15 C20.5133442,15 20.9355745,15.3827202 20.9932793,15.8826674 L21,16 C21,16.5522847 20.5573397,17 20.0010434,17 L18.9989566,17 C18.9428092,17 18.8877438,16.9954028 18.8341216,16.986558 C18.4270917,18.1583137 17.3121404,19 16,19 C14.6882295,19 13.573537,18.1587882 13.1657659,16.986208 C13.1143383,16.9954541 13.059918,17 13.0044225,17 L3.9955775,17 C3.44573523,17 3,16.5561352 3,16 C3,15.4477153 3.44483697,15 3.9955775,15 L13.0044225,15 C13.0598275,15 13.1141755,15.0045068 13.1671168,15.0131813 C13.573537,13.8412118 14.6882295,13 16,13 Z M16,15 C15.4472847,15 15,15.4472847 15,16 C15,16.5527153 15.4472847,17 16,17 C16.5527153,17 17,16.5527153 17,16 C17,15.4472847 16.5527153,15 16,15 Z M8,5 C9.31177047,5 10.426463,5.8412118 10.8342341,7.01379196 C10.8856617,7.00454594 10.940082,7 10.9955775,7 L20.0044225,7 C20.5149903,7 20.9357924,7.38272018 20.993302,7.88266744 L21,8 C21,8.55228475 20.555163,9 20.0044225,9 L10.9955775,9 C10.9401725,9 10.8858245,8.99549315 10.8328832,8.98681873 C10.426463,10.1587882 9.31177047,11 8,11 C6.68822953,11 5.57353701,10.1587882 5.16576588,8.98620804 C5.11240623,8.99542039 5.05730602,9 5.00104344,9 L3.99895656,9 C3.44724809,9 3,8.55613518 3,8 C3,7.44771525 3.44266033,7 3.99895656,7 L5.00104344,7 C5.05719076,7 5.11225618,7.00459716 5.16587837,7.01344196 C5.57290832,5.84168632 6.6878596,5 8,5 Z M8,7 C7.44728475,7 7,7.44728475 7,8 C7,8.55271525 7.44728475,9 8,9 C8.55271525,9 9,8.55271525 9,8 C9,7.44728475 8.55271525,7 8,7 Z" id="Rectangle-13" fill="#3F51B5"></path>
    </g>
</svg>