<?xml version="1.0" encoding="UTF-8"?>
<svg width="24px" height="24px" viewBox="0 0 24 24" version="1.1" xmlns="http://www.w3.org/2000/svg" xmlns:xlink="http://www.w3.org/1999/xlink">
    <!-- Generator: Sketch 63.1 (92452) - https://sketch.com -->
    <title>Icons/Profile</title>
    <desc>Created with Sketch.</desc>
    <g id="Icons/Profile" stroke="none" stroke-width="1" fill="none" fill-rule="evenodd">
        <path d="M12,3 C16.9705627,3 21,7.02943725 21,12 C21,16.9705627 16.9705627,21 12,21 C7.02943725,21 3,16.9705627 3,12 C3,7.02943725 7.02943725,3 12,3 Z M15,14 L9,14 C7.895,14 7,14.896 7,16 L7,16 L7,16.867 C8.273,18.18 10.052,19 12.021,19 C13.968,19 15.73,18.2 17,16.913 L17,16.913 L17,16 C17,14.896 16.105,14 15,14 L15,14 Z M11.9992,6 C10.3432,6 9.0012,7.342 9.0012,8.998 C9.0012,10.655 10.3432,11.997 11.9992,11.997 C13.6552,11.997 14.9982,10.655 14.9982,8.998 C14.9982,7.342 13.6552,6 11.9992,6 Z" id="Oval-2" fill="#3F51B5"></path>
    </g>
</svg>