<?xml version="1.0" encoding="UTF-8"?>
<svg width="24px" height="24px" viewBox="0 0 24 24" version="1.1" xmlns="http://www.w3.org/2000/svg" xmlns:xlink="http://www.w3.org/1999/xlink">
    <!-- Generator: Sketch 63.1 (92452) - https://sketch.com -->
    <title>Icons/Refresh</title>
    <desc>Created with Sketch.</desc>
    <g id="Icons/Refresh" stroke="none" stroke-width="1" fill="none" fill-rule="evenodd">
        <path d="M15.002237,4 C15.145237,4 15.291237,4.03332337 15.429237,4.10205283 C18.197237,5.47247653 19.999237,8.3820235 19.999237,11.630011 C19.999237,14.1318303 18.9306582,16.4406837 17.1596538,17.9970613 L19.0002,17.9966611 C19.5532,17.9966611 20.0002,18.445409 20.0002,18.9983306 C20.0002,19.5512521 19.5532,20 19.0002,20 L19.0002,20 L15.1002,20 C14.4932,20 14.0002,19.506177 14.0002,18.8981636 L14.0002,18.8981636 L14.0002,15.0016694 C14.0002,14.4477462 14.4482,14 15.0002,14 C15.5522,14 16.0002,14.4477462 16.0002,15.0016694 L16.0002,15.0016694 L16.0007152,16.2874818 C17.2509039,15.1228953 17.999237,13.4445651 17.999237,11.630011 C17.999237,9.19323935 16.648237,7.0115998 14.571237,5.98274067 C14.072237,5.73593944 13.860237,5.11529163 14.097237,4.59565529 C14.269237,4.22076734 14.628237,4 15.002237,4 Z M8.9002,4 C9.50748475,4 10.0002,4.49353781 10.0002,5.10183639 L10.0002,5.10183639 L10.0002,8.99833055 C10.0002,9.55153731 9.55248475,10 9.0002,10 C8.44791525,10 8.0002,9.55153731 8.0002,8.99833055 L8.0002,8.99833055 L7.99979648,7.71224758 C6.74907752,8.87679587 6,10.5553151 6,12.3703101 C6,14.8070226 7.35147967,16.9894079 9.42839965,18.0178142 C9.92717606,18.264788 10.1392655,18.8860858 9.90211458,19.4055218 C9.66496369,19.9249578 9.06837675,20.145832 8.56960035,19.8988582 C5.80206113,18.5284854 4,15.6184958 4,12.3703101 C4,9.86826512 5.06888805,7.55932054 6.83979438,6.0029762 L5.0002,6.0033389 C4.44791525,6.0033389 4.0002,5.55487621 4.0002,5.00166945 C4.0002,4.44846269 4.44791525,4 5.0002,4 L5.0002,4 Z" id="Stroke-1" fill="#3F51B5"></path>
    </g>
</svg>