<?xml version="1.0" encoding="UTF-8"?>
<svg width="24px" height="24px" viewBox="0 0 24 24" version="1.1" xmlns="http://www.w3.org/2000/svg" xmlns:xlink="http://www.w3.org/1999/xlink">
    <!-- Generator: Sketch 63.1 (92452) - https://sketch.com -->
    <title>Icons/Retry</title>
    <desc>Created with Sketch.</desc>
    <g id="Icons/Retry" stroke="none" stroke-width="1" fill="none" fill-rule="evenodd">
        <path d="M12.9283,4 C15.4870307,4 17.6868219,5.32366304 19.5478963,7.59632128 C20.1544546,8.33680896 20.5471226,9.18476698 20.74746,10.1098332 C21.0444114,11.481018 20.9097995,12.9078813 20.5119867,14.2831492 C20.3641404,14.7942645 20.2136434,15.1851479 20.10211,15.4268155 C18.7989884,18.1958025 16.0259116,20 12.9283,20 C10.0482972,20 7.43927833,18.4412752 6.03573867,15.969825 C5.76300667,15.4895795 5.93122958,14.8791707 6.41147504,14.6064387 C6.89172051,14.3337067 7.50212934,14.5019296 7.77486133,14.982175 C8.82723933,16.8352754 10.7767743,18 12.9283,18 C15.2422075,18 17.3155596,16.6510519 18.2892875,14.582057 C18.3579907,14.4331504 18.4730448,14.1343223 18.5907496,13.7274082 C18.9043136,12.6433944 19.0091412,11.5322404 18.7927729,10.5331511 C18.6573249,9.907715 18.3990554,9.34998729 18.0006142,8.86356948 C16.4853724,7.01322607 14.8014954,6 12.9283,6 C10.6142635,6 8.53951206,7.35106779 7.56275894,9.42743388 C7.47456226,9.61558678 7.39631019,9.80695491 7.32863969,10.0003347 L8.954,10.0003 C9.50628475,10.0003 9.954,10.4480153 9.954,11.0003 C9.954,11.5525847 9.50628475,12.0003 8.954,12.0003 L5.099,12.0003 C4.48877206,12.0003 4,11.504692 4,10.9003 L4,7.0003 C4,6.44801525 4.44771525,6.0003 5,6.0003 C5.55228475,6.0003 6,6.44801525 6,7.0003 L6.00040001,8.09327829 C7.38701132,5.5981165 10.0144786,4 12.9283,4 Z" id="Combined-Shape" fill="#3F51B5"></path>
    </g>
</svg>