<?xml version="1.0" encoding="UTF-8"?>
<svg width="24px" height="24px" viewBox="0 0 24 24" version="1.1" xmlns="http://www.w3.org/2000/svg" xmlns:xlink="http://www.w3.org/1999/xlink">
    <!-- Generator: Sketch 63.1 (92452) - https://sketch.com -->
    <title>Icons/Send</title>
    <desc>Created with Sketch.</desc>
    <g id="Icons/Send" stroke="none" stroke-width="1" fill="none" fill-rule="evenodd">
        <path d="M20.4112266,5 C21.8047253,5 22.5207241,6.69516442 21.5599866,7.72362536 L21.5599866,7.72362536 L9.55670459,20.5261509 C8.62526142,21.5185247 6.98044809,20.8482943 6.98044809,19.4774708 L6.98044809,19.4774708 L6.98044809,12.3996728 L2.42020645,7.57210945 C1.5068331,6.6070956 2.18060181,5 3.49795156,5 L3.49795156,5 Z M19.4612507,7.02581275 L4.666,7.025 L8.184,10.749 L11.5782958,9.09817817 C12.0396306,8.87382965 12.5837999,9.0466518 12.8469747,9.48224371 L12.9025537,9.5873683 C13.1370991,10.0991466 12.9244818,10.7098854 12.4276598,10.9514915 L12.4276598,10.9514915 L8.973,12.631 L8.97329303,18.2121134 L19.4612507,7.02581275 Z M3.8577104,6.16905481 C4.16115582,6.49092212 3.93654525,7.02581275 3.49795156,7.02581275 L4.666,7.025 L3.8577104,6.16905481 Z" id="Stroke-1" fill="#3F51B5"></path>
    </g>
</svg>