<?xml version="1.0" encoding="UTF-8"?>
<svg width="24px" height="24px" viewBox="0 0 24 24" version="1.1" xmlns="http://www.w3.org/2000/svg" xmlns:xlink="http://www.w3.org/1999/xlink">
    <!-- Generator: Sketch 63.1 (92452) - https://sketch.com -->
    <title>Icons/Share</title>
    <desc>Created with Sketch.</desc>
    <g id="Icons/Share" stroke="none" stroke-width="1" fill="none" fill-rule="evenodd">
        <path d="M18,3 C19.6568542,3 21,4.34314575 21,6 C21,7.65685425 19.6568542,9 18,9 C17.1370551,9 16.359209,8.6356484 15.811906,8.05238932 L8.999,11.985 L9,12 C9,12.1328805 8.99136072,12.2637433 8.97461322,12.3920571 L15.5906348,16.2122402 C16.1373681,15.4766146 17.0130244,15 18,15 C19.6568542,15 21,16.3431458 21,18 C21,19.6568542 19.6568542,21 18,21 C16.4047134,21 15.1002541,19.7548205 15.0055111,18.1833506 L8.06535136,14.1758589 C7.52744399,14.6866125 6.80031978,15 6,15 C4.34314575,15 3,13.6568542 3,12 C3,10.3431458 4.34314575,9 6,9 C6.92547145,9 7.7530652,9.41906422 8.30337564,10.077787 L15.0070697,6.207584 C15.0023822,6.13899698 15,6.06977669 15,6 C15,4.34314575 16.3431458,3 18,3 Z M18,17 C17.4477153,17 17,17.4477153 17,18 C17,18.5522847 17.4477153,19 18,19 C18.5522847,19 19,18.5522847 19,18 C19,17.4477153 18.5522847,17 18,17 Z M6,11 C5.44771525,11 5,11.4477153 5,12 C5,12.5522847 5.44771525,13 6,13 C6.55228475,13 7,12.5522847 7,12 C7,11.4477153 6.55228475,11 6,11 Z M18,5 C17.4477153,5 17,5.44771525 17,6 C17,6.55228475 17.4477153,7 18,7 C18.5522847,7 19,6.55228475 19,6 C19,5.44771525 18.5522847,5 18,5 Z" id="Combined-Shape" fill="#3F51B5"></path>
    </g>
</svg>