<?xml version="1.0" encoding="UTF-8"?>
<svg width="24px" height="24px" viewBox="0 0 24 24" version="1.1" xmlns="http://www.w3.org/2000/svg" xmlns:xlink="http://www.w3.org/1999/xlink">
    <!-- Generator: Sketch 63.1 (92452) - https://sketch.com -->
    <title>Icons/Team</title>
    <desc>Created with Sketch.</desc>
    <g id="Icons/Team" stroke="none" stroke-width="1" fill="none" fill-rule="evenodd">
        <path d="M15.000385,13 C16.1047419,13 17,13.8854554 17,15.000312 L17,18.7298664 C17,21.7567112 7,21.7567112 7,18.7298664 L7,14.9997846 L7,14.9997846 C7,13.8953341 7.88743329,13 8.99961498,13 L15.000385,13 Z M8.12601749,10 C8.32837763,10.7862243 8.76376971,11.478897 9.3541756,12 L9.3541756,12 L9.00032973,12 C7.3486445,12 6,13.3413823 6,14.9960612 L6,14.9960612 L6,17.9591536 C3.87429318,17.7833773 2,17.0402816 2,15.7298664 L2,15.7298664 L2,11.9997846 C2,10.8953341 2.88743329,10 3.99961498,10 L3.99961498,10 Z M20.000385,10 C21.1047419,10 22,10.8854554 22,12.000312 L22,15.7298664 C22,17.0402816 20.1257068,17.7833773 18,17.9591536 L18,14.9961181 C18,13.3432101 16.6567066,12 14.9996703,12 L14.6458244,12 C15.2362303,11.478897 15.6716224,10.7862243 15.8739825,10 L20.000385,10 Z M12,6 C13.6568542,6 15,7.34314575 15,9 C15,10.6568542 13.6568542,12 12,12 C10.3431458,12 9,10.6568542 9,9 C9,7.34314575 10.3431458,6 12,6 Z M7,3 C8.50542329,3 9.75186139,4.10884742 9.96712664,5.55435462 C8.83592722,6.22318396 8.0626367,7.43319383 8.00363103,8.82800827 C7.68982656,8.93937919 7.35199266,9 7,9 C5.34314575,9 4,7.65685425 4,6 C4,4.34314575 5.34314575,3 7,3 Z M17,3 C18.6568542,3 20,4.34314575 20,6 C20,7.65685425 18.6568542,9 17,9 C16.6480783,9 16.3103097,8.93940363 15.9965588,8.82807563 C15.9390444,7.43216774 15.1653286,6.22108204 14.0331427,5.55254975 C14.2491763,4.10792452 15.4952033,3 17,3 Z" id="Oval-3" fill="#3F51B5"></path>
    </g>
</svg>