<?xml version="1.0" encoding="UTF-8"?>
<svg width="24px" height="24px" viewBox="0 0 24 24" version="1.1" xmlns="http://www.w3.org/2000/svg" xmlns:xlink="http://www.w3.org/1999/xlink">
    <!-- Generator: Sketch 63.1 (92452) - https://sketch.com -->
    <title>Icons/Video</title>
    <desc>Created with Sketch.</desc>
    <g id="Icons/Video" stroke="none" stroke-width="1" fill="none" fill-rule="evenodd">
        <path d="M14.4907123,6 C15.639941,6 16.5707643,6.88765974 16.5707643,7.98359718 L16.5707643,7.98359718 L16.5707643,15.9021171 C16.5707643,16.9980545 15.639941,17.8857143 14.4907123,17.8857143 L14.4907123,17.8857143 L4.080052,17.8857143 C2.93082327,17.8857143 2,16.9980545 2,15.9021171 L2,15.9021171 L2,7.98359718 C2,6.88765974 2.93082327,6 4.080052,6 L4.080052,6 Z M21.2722018,6.78967004 C21.9648591,6.43857334 22.8,6.91761205 22.8,7.66542819 L22.8,7.66542819 L22.8,16.2325844 C22.8,16.9813923 21.9627791,17.4594393 21.2701218,17.1073508 L21.2701218,17.1073508 L17.59987,15.2388022 L17.59987,8.65028419 Z" id="Combined-Shape" fill="#3F51B5"></path>
    </g>
</svg>